<svg width="70" height="70" viewBox="0 0 70 70" fill="none" xmlns="http://www.w3.org/2000/svg">
<rect width="70" height="70" rx="20" fill="white"/>
<path d="M22.9772 11C21.8596 12.5226 21.0987 14.2754 20.7505 16.1295C20.4023 17.9836 20.4757 19.8919 20.9652 21.714C21.4547 23.5362 22.3478 25.2259 23.579 26.6589C24.8103 28.092 26.3482 29.2319 28.0798 29.995L48.6415 39.8949C49.759 38.3721 50.5198 36.6192 50.8679 34.7651C51.216 32.9109 51.1425 31.0026 50.6528 29.1804C50.1632 27.3582 49.2698 25.6686 48.0385 24.2356C46.8071 22.8026 45.269 21.6628 43.5372 20.8999L22.9772 11Z" fill="#0062AA"/>
<path d="M40.5485 25.277L35.0539 33.3507L18 58.383C21.7939 60.0934 26.0657 60.4402 30.0875 59.3643C34.1093 58.2884 37.6321 55.8564 40.0555 52.4828L48.6392 39.8824C49.7566 38.3599 50.5173 36.6073 50.8654 34.7535C51.2135 32.8996 51.1402 30.9916 50.6509 29.1697C50.1616 27.3478 49.2687 25.6583 48.0378 24.2253C46.807 22.7923 45.2694 21.6523 43.5382 20.889L38.7504 18.5912C39.3589 18.8607 39.8992 19.2623 40.3317 19.7667C40.7643 20.271 41.0783 20.8653 41.2507 21.506C41.423 22.1468 41.4494 22.8178 41.3279 23.47C41.2065 24.1223 40.9402 24.7392 40.5485 25.2757" fill="#0094FF"/>
</svg>
